<?xml version="1.0" encoding="UTF-8"?>
<svg id="Livello_1" data-name="Livello 1" xmlns="http://www.w3.org/2000/svg" xmlns:xlink="http://www.w3.org/1999/xlink" viewBox="0 0 2388 1668">
  <defs>
    <style>
      .cls-1 {
        fill: url(#Sfumatura_senza_nome_10);
      }

      .cls-2 {
        fill: #ff671d;
      }

      .cls-3 {
        fill: #fff;
      }

      .cls-4 {
        opacity: .05;
      }

      .cls-5 {
        fill: url(#Sfumatura_senza_nome_7);
      }

      .cls-6 {
        fill: url(#Sfumatura_senza_nome_4);
      }
    </style>
    <linearGradient id="Sfumatura_senza_nome_10" data-name="Sfumatura senza nome 10" x1="3744.57" y1="4038.1" x2="3858.45" y2="4038.1" gradientTransform="translate(-3078.71 -3204.94)" gradientUnits="userSpaceOnUse">
      <stop offset=".53" stop-color="#fff" stop-opacity="0"/>
      <stop offset="1" stop-color="#fff"/>
    </linearGradient>
    <linearGradient id="Sfumatura_senza_nome_4" data-name="Sfumatura senza nome 4" x1="665.99" y1="834.04" x2="732.57" y2="834.04" gradientUnits="userSpaceOnUse">
      <stop offset=".43" stop-color="#fff" stop-opacity="0"/>
      <stop offset="1" stop-color="#fff"/>
    </linearGradient>
    <linearGradient id="Sfumatura_senza_nome_7" data-name="Sfumatura senza nome 7" x1="3744.83" y1="4040" x2="3835.83" y2="4040" gradientTransform="translate(-3078.71 -3204.94)" gradientUnits="userSpaceOnUse">
      <stop offset=".43" stop-color="#fff" stop-opacity="0"/>
      <stop offset="1" stop-color="#fff"/>
    </linearGradient>
  </defs>
  <rect class="cls-2" width="2388" height="1668"/>
  <g class="cls-4">
    <path class="cls-3" d="M2717.25,372.5c-18.38-6.3-36.77-12.6-55.16-18.9-41.94-14.72-85.76-28.92-132.79-36.26-14.08-2.2-22.69,9.63-28.6,16.34-13.45,15.49-26.9,30.98-40.35,46.48-4.06,5.22-9.82,14.61-19.41,13.79-9.13-.78-13.81-8.28-19.41-12.77-5.64-4.52-15.38-10.1-17.36-17.87-2.39-9.33,5.87-15.07,9.19-19.41,11.4-14.3,22.81-28.6,34.22-42.9,11.06-13.79,22.13-27.58,33.2-41.37,8.76-11.59,17.27-26.93,31.66-32.69,17.98-7.19,44.3,2.94,59.75,7.15,49.41,13.46,98.08,24.65,144.02,41.37,3.93-7.25,1.12-64.83,1.02-78.14-12.94-3.4-25.88-6.81-38.81-10.21-.34-.51-.68-1.02-1.02-1.53,5-5.25,34.7-34.46,39.84-35.24V44.11l-1.02-.51c-11.23,13.11-22.47,26.22-33.71,39.33-12.77,13.79-25.54,27.58-38.3,41.37-9.65,11.99-21.58,29.28-38.3,33.71-18.41,4.87-40.23-4.62-55.16-8.68-11.12-3.03-26.81-3.66-35.75-9.7-4.38-3.41-5.57-31.87-7.15-39.84-5.24-26.41-9.61-52.9-16.85-77.12-2.04-7.49-4.09-14.98-6.13-22.47V-.84h-95.5V-.33c16.63,36.21,37.91,102.56,24.51,155.26-11.88,46.75-32.52,81.66-55.67,116.44-66.04,99.2-154.27,181.46-255.87,245.14-52.26,32.76-108.09,64.05-175.69,81.2-28.12,7.13-69.86,12.49-100.1,4.09-27.02-7.51-46.21-22-67.93-34.73-55.53-32.56-112.06-60.14-151.17-108.78-12.6-15.67-26.44-30.12-38.81-46.48-3.6-4.75-8.66-8.52-10.73-14.81h-1.53c2.04,29.79,4.09,59.59,6.13,89.38.17,9.53.34,19.07.51,28.6.17,18.38.34,36.77.51,55.16-4.51,30.21,3.7,64.71-3.58,91.93.17.34.34.68.51,1.02,9.02-3.06,18.05-6.13,27.07-9.19,13.71-4.1,28.61-5.08,43.92-7.66,28.11-4.74,59.76,1.8,80.69,7.66,60.06,16.83,105.03,49.37,143.51,87.84,8.51,8.85,17.02,17.71,25.54,26.56h1.02c19.58-18.38,39.16-36.77,58.73-55.16,8.88-7.17,15.9-19.54,27.07-24,15.83-6.32,50.96,26.2,53.63,36.77,3.36,13.32-25.83,35.9-32.69,42.9-35.41,37.45-70.82,74.91-106.23,112.36h-2.04c-8.79-16.53-20.31-30.58-31.15-44.94-40.58-53.74-89.41-100.23-163.43-120.53-32.74-8.98-78.53-6.46-109.8,2.04-6.13,1.53-12.26,3.06-18.39,4.6-3.08,2.12-4.38,33.7-5.62,40.35-3.57,21.79-7.15,43.58-10.73,65.37-3.23,12.26-6.47,24.52-9.7,36.77,8.34-2.21,16.68-4.43,25.03-6.64,9.53-1.19,19.07-2.38,28.6-3.58,33.06-5.37,76.54,10.53,96.01,20.43,71.86,36.52,116.36,98.69,144.53,178.75,14.16,40.24,23.23,132.88,51.58,154.24,24.54,18.49,70.91,8.77,96.01-1.53,67.84-27.83,105.3-87.38,135.34-153.21,7.05.93,39.36,26.26,48.52,31.66,25.95,15.32,54.03,21.06,90.4,27.07,26.98,4.46,68.43-3.1,89.38-7.66,11.86-2.59,27.9-4.86,34.73,3.58,11.11,13.72,22.44,44.38,30.13,61.8,20.94,43.75,41.88,87.51,62.82,131.25,11.05,21.72,25.37,60.03,47.5,69.46,19.49,8.31,44.24-2.56,59.24-7.66,34.21-11.06,68.44-22.13,102.65-33.2,9.75-3.6,33.7-15.08,42.9-14.3v-130.23c-34.73,12.6-69.46,25.2-104.19,37.79-10.46,4.09-29.77,15.28-44.94,9.19-12.41-4.98-16.98-23.13-23.49-34.22-15.66-27.75-31.33-55.5-46.99-83.25-62-105.47-131.07-202.96-182.33-318.18-6.41-.8-15.18,2.53-21.45,4.09-15.21,3.78-40.06,8.77-57.2,3.58-18.57-5.62-30.52-21.66-41.37-35.24-20.97-26.24-44.33-50.64-65.37-77.12-8.51-10.7-25.34-25.39-18.9-46.99,6.24-20.93,27.99-34.28,43.41-46.48,29.77-23.55,57.91-49.35,87.84-73.03,11.92-9.87,23.83-19.75,35.75-29.62,13.32-8.09,28.46-.2,38.3,5.11,17.06,9.2,56.79,42.44,83.76,35.24,12.57-3.36,22.84-15.95,30.13-25.03,14.64-16.17,29.28-32.35,43.92-48.52,8.46-10.78,16.19-24.94,28.09-32.18,16.38-9.96,44.69-1.42,61.29,3.57,52.49,15.79,104.82,31.55,152.7,52.09,3.7-5.24,1.02-22.97,1.02-30.64v-82.74ZM2123.8,834.69c12.77,15.83,25.54,31.67,38.3,47.5,7.55,9.71,14.87,22.12,25.54,28.6,22.65,13.75,70,6.4,93.46-1.02,8-3.23,16-6.47,24-9.7,14.98,26.38,29.96,52.78,44.94,79.16-8,8.39-50.84,10.46-67.41,13.28-65.48,11.14-128.84-15.33-163.43-41.37-10.16-7.65-23.34-16.78-29.62-28.09h-2.04c-21.79,22.47-43.58,44.95-65.37,67.41-10.21,9.7-20.43,19.41-30.64,29.11-4.69,7.27,3.81,21.16,2.04,31.15-1.33,7.55-6.23,12.85-10.73,17.36-7.32,7.35-40.91,42.57-52.6,34.73-10.39-6.97-13.22-60.37-16.34-77.12-1.35-7.24-2.12-18.45,1.02-24,5.09-9.01,15.56-17.59,23.49-24,16.34-16.17,32.69-32.35,49.03-48.52,24-25.53,48.01-51.07,72.01-76.61,13.62-16,27.24-32.01,40.86-48.01,6.06,2.08,19.07,24.12,23.49,30.13Z"/>
    <path class="cls-3" d="M-46.74,1454.19c16.51,12.09,33.03,24.18,49.54,36.26,4.61,3.42,9.7,12.51,17.88,10.21,7.88-3.75,13.1-16.9,17.88-24,11.58-17.24,54.09-73.47,36.26-96.53-12.08-15.62-38.45-29.13-55.16-40.86-49.25-34.57-106.98-65.57-164.45-90.91-18.04-8.17-36.09-16.34-54.14-24.51-10.68-4.67-22.14-8.37-31.15-14.81-11.51-8.22-15.95-22.47-21.45-36.77-1.84-4.78-2.28-11.02-5.62-14.3v181.81c18.72,9.02,37.45,18.05,56.18,27.07,55.09,24.21,107.4,54.21,154.24,87.33Z"/>
    <path class="cls-3" d="M363.36,161.06c-50.24,21.61-98.13,44.96-141.98,72.52-17.57,11.05-40.31,23.11-51.07,40.86-8.12,13.38-7.79,37.66-3.06,54.65,11.75,39.49,23.49,78.99,35.24,118.49,3.82,12.06,16.82,37.12,11.24,52.6-4.89,13.57-21.32,17.81-34.22,23.49-26.38,13.28-52.78,26.56-79.16,39.84,13.79,30.64,27.58,61.29,41.37,91.93,10.55-1.3,41.78-23.01,52.09-29.11,43.3-25.64,119.28-56.98,101.12-133.81-12.26-39.32-24.52-78.65-36.77-117.98-3.46-9.8-16.34-34.3-11.24-46.48,5.98-14.29,44.75-26.77,59.24-35.24,58.14-33.96,122.21-60.02,179.26-94.48,16.32-9.86,69.66-32.28,64.86-58.73-2.8-15.44-11.22-27.04-16.85-39.84-15.15-33.53-30.3-67.08-45.45-100.61h-100.61c13.96,27.41,27.92,54.82,41.88,82.23,3.98,6.81,17.1,25.46,14.81,36.26-4.05,19.13-61.63,35.21-80.69,43.41Z"/>
    <path class="cls-3" d="M1685.6,31.34h.51c-1.02-9.3-1.09-21.35-1.02-32.18h-30.13V-.33c8.51,9.02,17.02,18.05,25.54,27.07,1.7,1.53,3.4,3.06,5.11,4.6Z"/>
    <path class="cls-3" d="M1805.62,158.51c27.73,27.9,71.15,79.71,115.42,87.84,20.65,3.8,36.5-10.01,47.5-17.36,33.28-22.28,78.63-55.3,93.97-94.48,13.5-34.46-7.81-80.69-18.39-107.76-3.2-8.19-8.5-17.8-9.19-27.58h-114.4c1.51,29.35,17.39,68.38,27.58,91.42,5.62,10.72,11.24,21.45,16.85,32.18,4.58,20.83-18.78,33.15-31.15,37.79-16.85,6.32-35.39-19.41-42.39-28.09-11.96-14.83-29.51-26.11-39.84-42.39-11.16-17.58-18.09-63.78-18.39-90.91h-81.71c5.21,40.4,2.21,83.45,15.83,114.91,7.78,17.97,25.24,31.29,38.3,44.43Z"/>
    <path class="cls-3" d="M1130.46,151.36c27.8,5.09,63,.04,87.33-4.6,44.17-8.41,84.85-12.69,129.21-20.94,27.49-5.11,69.38-7.42,92.95,2.55,30.85,13.05,51.08,40.54,75.59,60.26,26.41,21.25,49.51,48.37,70.48,75.08,31.84,40.54,65.56,80.52,97.04,121.55,31.68,41.3,65.78,83.63,117.46,104.7,86.46,35.24,179.5-25.54,233.91-59.75,90.32-56.8,175.71-128.19,232.38-218.59,14.35-22.88,43.3-71.46,36.26-113.38-3.56-21.17-6.43-39.68-13.28-57.2-5.79-13.96-11.58-27.92-17.36-41.88h-140.45V-.33c10.11,25.47,21.7,51.18,27.58,79.67,6.43,31.16-1.69,64.65-10.73,86.82-23.81,58.41-68.9,94.11-116.95,128.19-36.54,25.92-86.55,62.52-147.6,38.81-75.72-29.41-129.57-89.2-176.2-148.11-21.74-27.46-48.58-51-70.48-78.14-12.51-15.5-27.41-31.41-42.9-43.92-23.02-18.59-39.24-41.56-71.5-51.58-28.75-8.93-77.97-7.62-109.8-2.04-68.17,11.94-130.34,23.14-193.56,38.81-18.45,4.57-61.84,16.24-82.23,11.24-20.89-5.12-28.95-25.07-39.33-40.86-3.78-5.75-10.12-11.99-11.75-19.41h-111.34c8.26,18.77,27.28,38.68,39.33,55.16,29.9,40.9,55.93,86.05,115.93,97.04Z"/>
    <path class="cls-3" d="M573.78,1542.04c-9.53-2.22-51.95,6.39-58.73,11.24-6.32,4.51-7.64,19.42-10.21,27.58-9.36,28.43-18.73,56.86-28.09,85.29h129.72c-6.81-28.26-13.62-56.52-20.43-84.78-3.77-13.65-5.1-29.25-12.26-39.33Z"/>
    <path class="cls-3" d="M-236.73,307.64c17.76-25.02,35.96-49.85,49.54-79.16,7.17-.81,44.95,20.36,54.65,24.51,41.04,17.59,83.4,29.95,131.25,41.37,15.83,3.78,37.3,11.23,57.71,7.66,39.1-6.84,52.66-32.53,77.63-52.6,15.83-15.66,31.67-31.33,47.5-46.99,11.05-8.89,21.75-20.61,30.64-31.66,14.3-15.15,28.6-30.3,42.9-45.45,19.49-24.23,48.48-45.42,60.78-76.1,8.66-21.62-10.76-34.35-14.3-50.05h-118.49c1.04,6.3,2.54,14.71,0,20.94-4.47,10.97-14.17,18.26-21.96,26.05-13.11,13.11-26.22,26.22-39.33,39.33-20.94,20.43-41.88,40.86-62.82,61.29-11.84,9.54-20.56,22.86-37.28,27.58-23.29,6.57-46.68-5.7-64.35-11.24-53.01-16.59-102.16-35.29-149.64-56.18-16.77-7.38-50.96-20.83-56.69-37.79-4.28-12.66,18.36-52.28,25.03-57.2,2.9-2.14,9.07-4.83,14.3-4.09,20.89,2.96,39.92,13.31,58.22,20.43,32.68,11.06,65.37,22.13,98.06,33.2,16.2,5.72,48.02,20.41,68.95,13.79C54.2,63.04,75.81,22.84,104.94.7c.17-.51.34-1.02.51-1.53h-362.61v336.05c8.53-6.42,14.2-18.81,20.43-27.58Z"/>
    <path class="cls-3" d="M2306.12,1387.29c5.72,15.26,8.08,33.42,16.34,46.48,10.58,2.09,38.84-14.08,48.01-19.41,10.28-5.97,45.99-20.14,49.54-29.62,3.87-10.36-8.81-29.93-12.26-36.77-14.3-31.49-28.6-62.99-42.9-94.48-7.32-15.49-14.64-30.98-21.96-46.48-2.51-5.69-5.05-16.37-10.21-19.41-1.7-.17-3.4-.34-5.11-.51-15.65,6.46-38.64,2.37-56.69,5.11-5.04.76-11.21-.85-14.81,1.02-10.76,5.87,4.68,49.38,7.66,59.24,13.6,45.02,26.25,91.76,42.39,134.83Z"/>
    <path class="cls-3" d="M2526.24,692.2c19.2-27.24,39.07-53.28,58.73-79.67,19.13-25.67,43.26-58.97,68.44-78.14v-2.04c-23.23-11.97-49.21-20.44-76.61-29.11-9.72-3.08-19.79-7.86-32.18-7.66-11.75,8.36-20.3,21.37-29.11,32.69-12.12,15.57-27.57,28.66-39.84,43.92-11.89,14.8-29.52,34.29-48.01,41.88-27.68,11.37-69.48-14.11-87.84-23.49-6.61-3.38-17.43-12.53-28.09-10.21-11.79,2.56-19.21,16.26-27.58,22.98-24,20.26-48.01,40.52-72.01,60.78,2.78,9.75,19.63,23.04,26.05,31.15,11.07,13.99,31.37,42.9,48.01,49.54,18.92,7.55,59.08-5.9,73.03-11.24,21.96,38.64,43.92,77.29,65.88,115.93,36.09,58.73,72.18,117.47,108.27,176.2,23.31,37.47,42.9,77.85,68.44,113.38,9.7,2.38,20.59-4.41,28.6-7.66,22.18-8.99,43.6-17.96,64.86-27.07,8.6-3.68,22.12-7,18.9-21.96-2.46-11.43-10.84-20.36-16.34-29.11-11.23-17.53-22.47-35.07-33.71-52.6-35.39-56.28-71.67-111.87-109.8-165.98-14.64-22.13-29.28-44.26-43.92-66.39-5.14-7.73-13.07-20.78-9.7-34.73,3.96-16.37,16.85-29.03,25.54-41.37Z"/>
    <path class="cls-3" d="M2386.31,1515.48c-26.72,10.38-53.46,20.77-80.18,31.15-8.2,3.12-22.66,10.05-32.18,3.57-9.78-6.65-11.38-23.22-15.32-35.75-9.36-28.6-18.73-57.2-28.09-85.8-.17-.51-.34-1.02-.51-1.53-13.78,3.2-26.96,15.93-38.3,22.98-19.65,12.21-40.81,22.52-61.8,33.2-11.3,5.75-28.39,9.86-31.15,24-2.97,15.21,5.7,31.14,9.19,42.39,9.3,30,17.81,58.52,29.11,86.82,3.17,7.95,12.36,21.57,11.75,29.62h227.78c18.75-11.73,41.86-19.26,63.33-28.09,25.65-10.55,51-24.02,81.2-29.11,30.5-5.14,33.57,14,38.3,35.75,1.53,7.15,3.06,14.3,4.6,21.45h129.72c-3.53-36.77-32.14-128.52,23.49-130.23v-115.93c-34.31,1.07-71.28,13.22-101.63,20.94-83.1,21.13-156.66,44.5-229.31,74.56Z"/>
    <path class="cls-3" d="M887.35,945.52c-.34-9.7-.68-19.41-1.02-29.11-5.25-33.11-7.74-59.46-18.9-84.78-9.24-20.97-23.73-43.27-8.17-69.46,15.43-25.96,49.74-36.08,77.12-50.05,41.24-21.04,81.65-44.39,112.87-75.59,12.57-12.56,23.66-25.69,32.18-42.39,2.29-4.48,8.03-13.74,5.11-20.94-1.98-5.62-7.95-7-15.83-6.64-7.49,1.19-14.98,2.38-22.47,3.57-15.83,4.43-31.67,8.85-47.5,13.28-72.3,23.01-139.69,56.79-196.11,96.53-19.68,13.86-42.97,27.3-55.67,48.01-14,22.81-13.43,64.29-7.15,95.5,3.23,18.89,6.47,37.79,9.7,56.69,8.52,38.24,17.1,91.45,5.62,132.79-32.62,117.41-131.57,145.25-251.27,175.18-37.13,9.28-105.23,23-147.6,9.7-33.43-10.49-65.01-39.24-84.78-63.84-9.58-11.92-21.98-31.18-36.77-37.28-11.6.43-35.86,33.66-42.9,42.39-29.45,30.47-58.91,60.95-88.35,91.42-8.19,6.61-39.64,35.51-42.9,43.92,6.1,8.05,18.53,12.26,27.07,17.88,23.23,15.28,59.56,38.44,70.48,64.86,9.16,22.17-2.25,53.85-9.19,71.5-20.38,51.79-49.13,94.06-80.69,134.32-10.73,13.69-23.55,35.49-44.43,38.3-19.46,2.62-45.42-30.93-57.2-40.35-34.57-27.63-68.29-54.88-105.72-80.18-10.77-7.28-32.44-25.61-45.96-27.58-18.18,29.32-34.78,63.58-45.96,99.08-6.05,19.19-7.14,38.62,4.09,53.11,11.39,14.71,40.35,32.83,56.18,44.43,4.96,3.64,20.16,11.04,20.94,16.34H145.8c2.5-7.72,18.05-18.74,23.49-25.54,13.45-17.02,26.9-34.05,40.35-51.07,32.14-45.65,53.49-99.65,71.5-159.85,4.94-22.64,9.87-45.29,14.81-67.93,3.33-15.26,2.31-28.88,15.32-34.22,12.22-5.01,30.1-1.69,44.43-4.09,29.96-3.23,59.93-6.47,89.89-9.7,128.4-24.03,251.75-32.08,327.88-108.27,50.71-50.75,86.45-121.03,106.74-201.73,4.59-18.24,3.85-37.84,7.15-58.22Z"/>
    <path class="cls-3" d="M728.52,1574.21c-16.85-76.9-7.16-173.77,11.75-240.04v-.51c-10.21,3.06-20.43,6.13-30.64,9.19-20.43,4.6-40.86,9.19-61.29,13.79-38.19,8.49-78.12,11.6-117.98,18.9-19.24,2.04-38.48,4.09-57.71,6.13-36.11,6.01-89.84-2.78-108.27,20.94-20.22,26.03-22.85,71.95-34.73,105.72-17.3,49.17-38.58,92.04-66.9,129.72-6.92,9.21-12.99,18.93-21.45,26.56v.51c7.25,3.9,37.75,1.02,48.52,1.02h123.59c13.79-40,27.58-80.02,41.37-120.02,5.22-13.84,6.89-32.83,17.88-40.86,13.07-9.55,46.78-11.2,64.86-15.83,14.87-3.81,55.86-18.12,69.46-9.7,13.73,8.5,15.6,32.08,20.43,49.54,8.85,30.98,17.71,61.97,26.56,92.95,4.94,14.64,9.87,29.28,14.81,43.92h87.33c-3.92-10.04-7.83-20.09-11.75-30.13-6.82-19.45-11.14-40.41-15.83-61.8Z"/>
    <path class="cls-3" d="M2016.04,1429.68c15.15-4.43,30.3-8.85,45.45-13.28,40.78-14.63,77.02-32.35,107.76-56.69,11.32-8.96,38.44-33.07,34.22-55.67-5.79-20.94-11.58-41.88-17.36-62.82-4.6-18.21-9.19-36.43-13.79-54.65-10.21-5.62-20.43-11.24-30.64-16.85-5.79,9.53-11.58,19.07-17.36,28.6-12.32,18.25-27.94,38.44-44.94,52.09-37.86,30.41-76.78,49.6-134.32,61.8-16.32,3.46-41.23,7.52-61.8,4.09-14.82-2.47-30.76-5.29-44.43-6.13,8.17,40.34,16.34,80.7,24.51,121.04,7.15,38.81,14.3,77.63,21.45,116.44,7.32,39.49,14.64,78.99,21.96,118.49h148.62c-7.15-23.66-14.3-47.33-21.45-70.99-15.49-52.03-27.52-105.45-38.81-159.85v-.51c5.72-3.15,13.9-3.32,20.94-5.11Z"/>
    <path class="cls-3" d="M1519.62,1331.11c-4.42-21.23-7.62-85.93-20.43-95.5-9.68-7.24-51.07,10.12-62.31,13.79-54.08,17.68-117.51,25.93-188.96,22.98-11.62,34.18-13.3,77.58-30.13,106.23-24.73,42.09-83.38,76.76-128.19,99.59-20.72,10.56-81.33,42.5-103.68,13.79-9.66-12.41-28.64-48.84-24.51-73.03,3.69-21.63,13.49-39.53,20.94-57.71,21.9-53.46,46.14-105.62,62.31-163.94,12.87-46.43-8.56-71.28-22.98-104.19-2.53-5.76-11.59-28.06-16.34-29.62-9.86,38.44-27.52,72.98-42.39,106.74-25.59,58.11-55.64,111.72-81.2,169.56-16.21,36.67-36.52,67.19-44.43,112.87-3.51,20.26,3.46,40.83,8.17,54.65,9.7,28.43,21.94,53.07,33.2,78.65,6.48,14.74,13.24,29.68,22.47,41.88,23.67,31.25,72.97,14.25,106.74,3.57,56.33-17.81,107.1-44.09,154.24-72.01,23.99-14.21,48.78-29.43,75.08-40.86,21.59-9.38,44.62-14.79,70.99-19.92,10.8-2.1,30.02-.47,35.24-8.17,5.37-7.91.1-64.24-2.04-77.12v-21.96c3.27-4.28,16.5-1.56,22.98-2.55,19.58-1.7,39.16-3.4,58.73-5.11,4.05,3.2,1.61,16.8,2.55,22.98,3.72,24.43,5.8,62.18,2.04,87.84-3.18,21.7-1.35,41.13-10.21,56.18-12.92,21.94-42.27,33.8-66.39,44.43-23.32,11.23-46.65,22.47-69.97,33.71-25.7,11.75-51.41,23.49-77.12,35.24h-1.02c.34.68.68,1.36,1.02,2.04h310.52c9.98-7.14,21.32-14.31,31.15-21.96,26.91-20.96,21.72-54.81,13.79-92.44-13.28-73.54-26.56-147.09-39.84-220.63Z"/>
    <path class="cls-3" d="M1709.1,1138.57c-13.33-60.79-27.26-152.88-76.61-174.15-21.06-9.08-53.39-4.96-74.56,1.02-50.35,14.22-93.64,33.96-140.45,52.6-18.51,7.37-50.24,23.38-76.1,13.28-22.4-8.75-57.27-60.97-72.52-81.2-26.72-37.28-53.46-74.57-80.18-111.85-7.46-10.5-26.47-29.4-23.49-48.52,3.03-19.48,14.69-30.16,24-43.41,8-12.77,16-25.54,24-38.3,19.41-32.22,31.93-71.16,40.86-113.38,1.53-13.45,3.06-26.9,4.6-40.35,3.69-22.23,3-54.43-.51-76.1-1.34-8.26.92-20.55-3.06-26.56-5.65-8.51-49.96-4.6-65.88-4.6-41.98,0-89.87-.89-127.68-7.66-14.47-2.21-28.94-4.43-43.41-6.64-.34-.34-.68-.68-1.02-1.02,2.9-13.18,13.47-30.33,18.39-44.94,1.53-5.45,3.06-10.9,4.6-16.34,6.3.68,12.6,1.36,18.9,2.04,15.8,2.88,32.72,3.03,50.56,4.6,33.1,2.9,77.27,4.04,109.29-1.02,17.02-1.19,34.05-2.38,51.07-3.57,25.31-4.11,51.17-3.7,61.29,12.77,13.04,21.24,10.51,62.35,15.32,91.93,3.43,21.07,4.98,50.39,1.53,72.52-3.15,20.26-1.03,38.73-4.6,57.71-9.59,51.02-21.43,95.02-40.86,135.34-8.51,15.32-17.02,30.64-25.54,45.96-6.78,10.74-18.19,20.07-20.94,34.22-2.86,14.7,8.25,24.42,13.79,31.66,15.54,20.33,32.84,38.84,48.52,58.73,4.81,6.1,16.16,27.21,28.6,19.41,9.94-6.23,17.88-16.33,26.05-24.51,30.74-30.8,52.7-68.95,66.9-116.44,6.33-21.16,8.76-44.16,13.28-66.9,6.54-32.9,3.58-67.07,9.19-102.14.85-19.58,1.7-39.16,2.55-58.73v-25.03c-.17-19.41-.34-38.82-.51-58.22-.17-11.06-.34-22.13-.51-33.2-.68-12.6-1.36-25.2-2.04-37.79-5.68-35.19-4.88-71.86-12.77-103.16-2.92-11.59-4.6-21.95-10.73-30.13-18.54-24.75-78.48-39.93-126.15-32.18-40.85,4.26-81.72,8.51-122.57,12.77-31.67,5.28-74.92,7.36-106.74,1.02-50.76-10.11-65.09-41.47-89.89-76.61-26.15-37.05-53.55-72.9-78.14-111.85-10.66-16.88-21.53-33.7-32.18-51.07-3.74-6.47-7.49-12.94-11.24-19.41h-123.08V-.33c14.98,24.51,29.96,49.03,44.94,73.54,25.53,43.58,51.07,87.17,76.61,130.74,10.38,17.53,20.77,35.07,31.15,52.6,3.35,5.37,10.61,12.55,8.68,22.47-4.13,21.26-61.32,52.62-80.18,64.35-72.59,45.14-159.55,72.36-244.63,105.72-22.64,8.34-45.29,16.68-67.93,25.03-9.2,3.62-20.94,11.39-31.66,11.75-5.37-5.47-23.6-53.41-17.36-62.82,4.61-6.96,15.43-9.73,23.49-13.28,19.41-9.02,38.82-18.05,58.22-27.07,60.79-26.79,119.21-59.02,173.13-92.95,19.61-12.34,47.45-26.7,56.69-49.03,9.81-23.7-11.21-58.96-19.41-75.08-29.62-55.49-59.25-111-88.86-166.49h-121.55c8.17,15.49,16.34,30.98,24.51,46.48,19.06,38.64,38.14,77.29,57.2,115.93,4.29,9.7,29.23,48.38,24,58.73-3.23,6.39-13.48,8.97-19.92,12.26-18.04,8.85-36.09,17.71-54.14,26.56-48.34,24.34-96.7,48.69-145.04,73.03-19.21,11.2-41.61,17.9-58.73,31.15-15.26,11.81-23.62,35.64-16.34,62.31,9.2,33.7,24.4,77.54,20.43,121.55-1.93,21.43-2.4,41.23-6.64,60.26-7.27,32.59-14.51,63.1-21.96,96.53-5.02,22.5-9.48,54.88-4.6,81.71,4.8,26.36,10.74,49.43,19.92,70.48,7.01,16.06,17.39,39.98,33.71,46.48,16.81,6.69,51.87-7.12,65.37-11.75,7.01-2.4,16.21-3.67,18.39-10.73,2.87-9.29-2.52-22.6-4.09-30.13-2.89-21.62-5.79-43.24-8.68-64.86-9.21-55.09,5.93-126.77,20.94-164.45,42.44-106.54,131.5-142.08,240.04-181.81,4.61,3.47,5.83,13.75,8.17,19.41,4.42,10.7,19.5,35.11,20.43,44.94-25.19,11.06-50.39,22.13-75.59,33.2-69.36,30.6-117.61,69.87-140.45,147.6-16.55,56.35-3.1,136.99,7.15,192.03,5.37,28.83,5.47,65.42-12.77,79.16-11.06,8.33-27.28,11.12-42.39,15.32-33.83,9.41-91.18,24.1-128.19,8.17-56.82-24.46-104.67-113.61-129.21-173.13-6.93-16.8-12.48-34.51-18.39-53.11-2.2-6.93-5.91-14.47-6.13-22.98-.34-.17-.68-.34-1.02-.51-11.23,10.38-22.47,20.77-33.71,31.15h-2.04c-7.32-16.68-14.64-33.37-21.96-50.05-2.25-5.34-3.01-14.8-7.15-18.39-7.48,3.75-31.23,19.93-41.37,17.36-10.18-2.58-14.38-20.03-18.39-29.11-13.96-29.62-27.92-59.25-41.88-88.86-7.66-15.15-15.32-30.3-22.98-45.45-2.21-3.93-8.86-10.6-5.62-16.34,4.2-8.71,23.62-10.91,33.2-14.3,25.02-9.53,50.05-19.07,75.08-28.6,8.09-3.41,22.13-5.2,26.05-12.77,4.15-10.83-12.17-44.55-15.32-54.65-5.51-17.67-14.99-59.44-28.6-67.41-7.59-4.44-20.89-.88-29.11.51-17,2.88-39.25,1.78-55.67-1.02-51.58-8.81-93.36-23.05-135.34-39.84-3.23,7.83-6.47,15.66-9.7,23.49-9.64,21.87-22.92,42.58-35.75,61.8-7.39,11.06-20.16,26.35-15.83,48.01,5.26,26.28,22.5,46.46,34.73,66.9,20.6,35.75,41.2,71.5,61.8,107.25,13.53,22.7,29,45.56,36.77,73.54,8.66,31.19-14.39,76.44-25.54,95.5-10.41,17.8-18.65,35.2-30.64,51.07-27.57,36.49-66.97,61.42-106.74,85.8-16.26,9.97-38.51,26.57-57.2,32.18v147.6c13.91-4.71,26.73-17.9,38.3-26.05,34.22-24.1,65.04-49.81,97.04-75.59,11.06-10.38,22.13-20.77,33.2-31.15,6.16,4.28,28.38,27.42,36.26,25.54,8.72-2.08,15.95-11.85,22.47-16.85,20.33-15.59,41.7-32.7,57.71-52.6,3.05-3.79,19.41-17.5,17.88-23.49-4.09-5.45-8.17-10.9-12.26-16.34-8.68-13.11-17.37-26.22-26.05-39.33-4.22-5.98-11.39-12.63-13.28-20.43-2.19-9.05,5.77-13.43,9.7-16.85,10.17-8.85,37.23-34.68,55.67-20.94,7.98,5.95,12.6,16.82,18.39,25.03,14.25,20.22,28.48,40.46,42.39,61.29,5.13,7.69,17.59,18.53,14.81,32.69-5.22,26.6-37.26,51.37-52.6,70.48-40.7,50.7-101.57,98.24-155.26,136.36-14.95,10.62-29.97,20.64-45.96,30.64-6.98,4.26-13.96,8.51-20.94,12.77-.51.68-1.02,1.36-1.53,2.04,33.87,17.19,67.76,34.39,101.63,51.58,8.55,4.98,26.62,17.94,36.77,18.9,19.41-18.04,38.82-36.09,58.22-54.14,11.39-9.19,20.43-21.06,31.66-30.13,13.45-13.45,26.9-26.9,40.35-40.35,15.3-18.94,34.88-34.89,50.05-54.14,17.19-22.13,34.39-44.26,51.58-66.39,7.78-10.65,15.08-28.57,27.07-34.73,12.62.22,18.89,18.62,24.51,26.56,18.69,26.37,36.92,57.92,63.33,76.61,81.73,57.83,245.06,7.64,306.94-36.26,15.84-11.24,30.71-25.47,38.3-44.94,8.15-20.92,6.98-58.04,2.55-82.23-8.49-46.45-24.53-123.51-12.26-174.66,11.38-47.43,46.79-67.85,82.74-90.4,71.53-44.87,149.49-83.17,235.95-113.38,40.16-14.03,107.3-31.35,145.55-4.09,39.81,28.38,36.68,82.78,10.21,122.57-31.18,46.89-77.41,83.03-123.08,115.42-28.62,20.3-67.06,37.55-75.59,77.63-7.22,33.94,29.93,81.97,42.9,103.68,27.38,45.81,49.87,93.88,77.12,140.45,13.09,22.37,33.74,58.82,38.81,86.82,3.65,20.17-6.74,45.86-11.24,60.26-14.05,44.99-30.84,86.98-48.52,129.72-3.83,9.25-23.55,54.89-20.94,63.84,1.02,1.02,2.04,2.04,3.06,3.06,6.63,2.5,15.94-2.77,20.94-4.6,17.64-6.43,33.49-13.7,48.52-22.47,17.06-9.96,38.98-19.39,50.05-35.24,6.75-9.67,8.92-23.3,12.77-35.75,9.27-29.97,15.98-61.47,24-93.46,5.58-22.26,19.92-66,15.32-93.97-4.89-29.73-25.3-51.44-38.81-74.05-26.55-46.13-53.12-92.27-79.67-138.4-8.85-16.17-17.71-32.35-26.56-48.52-2.3-10.35,12.94-21,22.98-16.85,7.36,2.84,10.4,14.93,14.3,21.45,11.75,19.75,23.49,39.5,35.24,59.24,29.45,46.13,58.91,92.27,88.35,138.4,16.27,25.84,36.88,61.95,60.26,80.18,16.93,13.2,46.71,14.25,73.03,8.17,50.18-11.6,96.92-24.11,143-40.35,12.1-4.26,46.1-19.93,60.26-14.81,14.38,5.2,16.41,21.42,20.94,36.77,8.73,29.63,12.72,61.09,20.94,91.93,15.45,57.99,22.13,120.52,35.24,180.79,2.55,17.19,5.11,34.39,7.66,51.58,5.6,27.08,6.82,55.82,12.26,84.27,7.04,36.87,10.77,75.62,10.21,119h129.21c-11.23-69.79-22.47-139.6-33.71-209.39-21.98-105.39-31.35-214.26-54.14-318.18Z"/>
  </g>
  <g>
    <g>
      <path class="cls-1" d="M665.87,730.82c56.48,0,102.36,45.84,102.36,102.36s-45.88,102.36-102.36,102.36v11.47c62.79,0,113.87-51.1,113.87-113.84s-51.08-113.87-113.87-113.87v11.51Z"/>
      <path class="cls-6" d="M665.99,778.86c30.35,0,55.08,24.77,55.08,55.17s-24.73,55.15-55.08,55.15v11.46c36.7,0,66.57-29.9,66.57-66.61s-29.88-66.61-66.57-66.61v11.44Z"/>
      <path class="cls-5" d="M666.12,755.57c43.84,0,79.5,35.66,79.5,79.45s-35.66,79.52-79.5,79.52v11.46c50.15,0,91-40.81,91-90.98s-40.84-90.89-91-90.89v11.44Z"/>
      <path class="cls-3" d="M703.38,796.34c-12.11-16.38-31.86-25.2-52.21-25.2-36.41,0-61.03,27.91-61.03,63.45s24.88,62.27,61.96,62.27c19.42,0,38.84-9.42,51.28-24.28v71.32c-19.69,6.09-33.99,10.64-52.52,10.64-31.86,0-62.23-12.13-85.92-33.71-25.19-22.77-36.73-52.52-36.73-86.58,0-31.22,11.86-61.25,33.75-83.72,22.4-23.11,54.92-37.04,87.12-37.04,19.08,0,36.7,4.2,54.3,11.53v71.34Z"/>
      <path class="cls-3" d="M654.72,871c20.86,0,37.79-16.91,37.79-37.77s-16.93-37.86-37.79-37.86v75.63Z"/>
    </g>
    <path class="cls-3" d="M1820.32,796.15c0-5.58,1.98-10.35,5.93-14.28,3.98-3.96,8.75-6.02,14.31-6.02s10.31,2.05,14.26,6.02c3.98,3.93,5.98,8.69,5.98,14.28s-2,10.31-5.98,14.31c-3.95,3.95-8.71,5.89-14.26,5.89s-10.33-1.95-14.31-5.89c-3.95-4-5.93-8.73-5.93-14.31ZM1858.21,796.15c0-4.87-1.69-9.07-5.2-12.46-3.45-3.53-7.64-5.26-12.47-5.26s-9.06,1.73-12.49,5.26c-3.51,3.38-5.18,7.58-5.18,12.46s1.67,9.04,5.18,12.51c3.44,3.47,7.66,5.2,12.49,5.2s9.02-1.73,12.47-5.2c3.51-3.47,5.2-7.71,5.2-12.51ZM1832.43,785.67h8.82c2.25,0,3.98.53,5.26,1.55,1.33.91,1.96,2.36,1.96,4.15,0,3.2-1.98,5.22-5.84,5.84,1.53.96,2.64,1.87,3.35,2.84.67.91,1.75,3.27,3.33,6.91h-3.26c-1.89-4.11-3.36-6.69-4.49-7.76-1.07-1.02-2.86-1.56-5.31-1.56h-1.24v9.33h-2.58v-21.28ZM1835.01,795.51h3.55c2.45,0,4.22-.31,5.27-.91,1.04-.55,1.55-1.6,1.55-3.06s-.47-2.38-1.4-2.91c-.96-.55-2.62-.75-5.02-.75h-3.95v7.62Z"/>
    <g>
      <path class="cls-3" d="M1356.29,852.63c0-12.06-.8-13.73-6.75-15.33-1.22-.33-3.71-.47-5.07-.47-.6,0-1.2-.33-1.2-.91,0-.91.76-1.16,2.4-1.16,6.73,0,16.11.42,16.89.42.73,0,10.15-.42,14.62-.42,1.64,0,2.4.25,2.4,1.16,0,.58-.62.91-1.18.91-1.05,0-1.98.15-3.76.47-4.02.71-5.2,3.27-5.51,8.47-.31,4.82-.31,9.27-.31,15.57v16.73c0,6.69-.13,6.98-1.98,8.06-9.49,5.09-22.97,6.73-31.64,6.73-11.37,0-32.57-1.47-49.17-16-9.09-7.93-17.75-23.9-17.75-42.57,0-23.89,11.66-40.77,24.95-49.14,13.46-8.38,28.22-9.44,39.75-9.44,9.4,0,19.99,1.98,22.84,2.56,3.13.76,8.36,1.36,12.07,1.47,1.55.11,1.85.75,1.85,1.36,0,2.13-1.05,6.24-1.05,21.2,0,2.38-.31,3.13-1.35,3.13-.78,0-.93-.89-1.04-2.24-.18-2.13-.93-6.24-3.16-9.84-3.73-5.71-15.84-12.13-35.12-12.13-9.42,0-20.64.93-31.95,9.89-8.71,6.82-14.82,20.4-14.82,37.93,0,21.08,10.6,36.28,15.86,41.39,11.8,11.49,25.39,15.95,39.13,15.95,5.38,0,13.11-.89,17.02-3.09,1.96-1.07,3.02-2.73,3.02-5.24v-25.44Z"/>
      <path class="cls-3" d="M1403.64,821.15c0-23.31,0-27.51-.33-32.3-.31-5.06-1.49-7.44-6.38-8.49-1.2-.27-3.75-.51-5.09-.51-.64,0-1.22-.22-1.22-.82,0-.95.73-1.25,2.4-1.25,6.73,0,16.13.49,16.86.49,1.67,0,13-.49,17.68-.49,9.4,0,19.4.89,27.31,6.66,3.73,2.64,10.27,9.97,10.27,20.26,0,11.07-4.6,22.11-18.02,34.51,12.22,15.69,22.4,28.97,31.08,38.24,8.02,8.53,14.48,10.18,18.22,10.75,2.82.45,4.91.45,5.84.45.71,0,1.33.47,1.33.91,0,.89-.91,1.16-3.6,1.16h-10.58c-8.38,0-12.13-.73-16.02-2.82-6.42-3.42-11.64-10.75-20.17-21.95-6.26-8.18-13.27-18.22-16.26-22.09-.62-.6-1.04-.93-1.98-.93l-18.37-.29c-.71,0-1,.45-1,1.22v3.55c0,14.4,0,26.19.73,32.44.42,4.36,1.35,7.6,5.84,8.22,2.05.25,5.38.58,6.71.58.91,0,1.2.47,1.2.91,0,.75-.76,1.16-2.4,1.16-8.22,0-17.62-.42-18.33-.42-.2,0-9.6.42-14.08.42-1.64,0-2.4-.27-2.4-1.16,0-.44.31-.91,1.16-.91,1.36,0,3.15-.33,4.47-.58,3.06-.62,3.76-3.86,4.38-8.22.75-6.26.75-18.04.75-32.44v-26.26ZM1415.61,834.14c0,.75.29,1.36,1,1.78,2.27,1.38,9.13,2.4,15.73,2.4,3.58,0,7.73-.44,11.18-2.82,5.2-3.58,9.13-11.69,9.13-23.02,0-18.66-9.89-29.84-25.88-29.84-4.47,0-8.51.38-10.02.87-.73.29-1.15.93-1.15,1.76v48.86Z"/>
      <path class="cls-3" d="M1549.91,775.71c33.59,0,58.68,21.26,58.68,56.03s-23.57,61.12-59.57,61.12c-40.95,0-57.97-31.84-57.97-58.72,0-24.24,17.64-58.43,58.86-58.43ZM1553.05,887.15c13.44,0,41.24-7.71,41.24-51.23,0-35.86-21.84-55.12-45.44-55.12-24.93,0-43.59,16.46-43.59,49.12,0,34.84,20.88,57.23,47.79,57.23Z"/>
      <path class="cls-3" d="M1625.63,821.15c0-23.31,0-27.51-.31-32.3-.27-5.06-1.45-7.44-6.4-8.49-1.18-.27-3.73-.51-5.09-.51-.58,0-1.18-.22-1.18-.82,0-.95.75-1.25,2.42-1.25,6.67,0,15.82.49,17.15.49s10.31-.49,14.78-.49c1.65,0,2.42.31,2.42,1.25,0,.6-.6.82-1.2.82-1.07,0-1.95.24-3.76.51-4.04.56-5.24,3.27-5.53,8.49-.24,4.78-.24,8.98-.24,32.3v20.89c0,21.49,4.71,30.79,11.17,36.92,7.29,6.82,14.06,8.18,22.59,8.18,9.09,0,18.04-4.27,23.44-10.75,6.87-8.49,8.66-21.19,8.66-36.59v-18.66c0-23.31,0-27.51-.31-32.3-.31-5.06-1.47-7.44-6.4-8.49-1.22-.27-3.73-.51-5.09-.51-.62,0-1.18-.22-1.18-.82,0-.95.73-1.25,2.33-1.25,6.78,0,14.98.49,15.88.49,1.04,0,8.07-.49,12.55-.49,1.67,0,2.4.31,2.4,1.25,0,.6-.58.82-1.18.82-1.07,0-1.95.24-3.73.51-4.06.87-5.24,3.27-5.55,8.49-.27,4.78-.27,8.98-.27,32.3v15.98c0,16.13-1.82,34.08-13.77,44.66-10.77,9.58-21.93,11.06-30.79,11.06-5.09,0-20.17-.58-30.73-10.62-7.36-7-13.06-17.48-13.06-39.3v-21.79Z"/>
      <path class="cls-3" d="M1747.87,821.15c0-23.31,0-27.51-.33-32.3-.29-5.06-1.47-7.44-6.38-8.49-1.22-.27-3.75-.51-5.11-.51-.58,0-1.2-.22-1.2-.82,0-.95.75-1.25,2.38-1.25,6.73,0,15.71.49,16.88.49,3.31,0,11.98-.49,18.84-.49,18.68,0,25.42,6.29,27.8,8.56,3.27,3.09,7.47,9.87,7.47,17.79,0,21.19-15.57,35.52-36.75,35.52-.75,0-2.36,0-3.13-.07-.75,0-1.69-.36-1.69-1.09,0-1.18.95-1.35,4.07-1.35,14.49,0,25.86-10.64,25.86-24.37,0-4.93-.49-14.93-8.4-23.02-7.95-8.13-17-7.46-20.46-7.46-2.51,0-5.07.35-6.42.95-.87.27-1.18,1.29-1.18,2.78v61.39c0,14.4,0,26.19.73,32.44.45,4.36,1.35,7.6,5.8,8.22,2.09.25,5.38.58,6.75.58.89,0,1.2.47,1.2.91,0,.75-.73,1.16-2.38,1.16-8.24,0-17.62-.42-18.38-.42-.45,0-9.87.42-14.31.42-1.69,0-2.42-.27-2.42-1.16,0-.44.31-.91,1.2-.91,1.33,0,3.13-.33,4.44-.58,3.02-.62,3.75-3.86,4.36-8.22.76-6.26.76-18.04.76-32.44v-26.26Z"/>
    </g>
    <g>
      <path class="cls-3" d="M949.92,893.27h-87.38c-17.98,0-34.7-5.56-46.63-15.06-14.13-11.15-21.15-25.73-21.15-42.92,0-36.37,27.66-60.57,71.74-60.57h76.87l-12.51,22.73h-66.16c-23.3,0-39.64,15.73-39.64,37.37,0,7.18,2.6,14.4,7.35,20.48,7.4,9.31,19.68,15.2,32.11,15.2h85.4v22.77Z"/>
      <path class="cls-3" d="M1054.52,870.51h85.41c12.44,0,24.75-5.89,32.1-15.2,4.75-6.07,7.36-13.29,7.36-20.48,0-21.64-16.37-37.37-39.63-37.37h-65.52l-12.38-22.73h76.12c44.04,0,71.7,24.2,71.7,60.57,0,17.18-7.06,31.77-21.11,42.92-11.98,9.49-28.64,15.06-46.66,15.06h-87.4v-22.77Z"/>
      <path class="cls-3" d="M1216.16,893.27v-118.55h28.84v118.55h-28.84Z"/>
      <path class="cls-3" d="M1054.24,893.27l-13.64-25.59h-75.92l-13.6,25.59h-29.17l63.05-118.55h35.52l62.9,118.55h-29.13ZM1002.49,796.35l-26.04,48.64h52.06l-26.02-48.64Z"/>
    </g>
  </g>
</svg>